<svg xmlns="http://www.w3.org/2000/svg" width="200" height="55" fill="none"><path fill="#9C9C9C" d="M16.277 32.481v7.266c0 3.633-1.6 4.943-4.143 4.943-2.543 0-4.141-1.31-4.141-4.943V12.28c0-3.633 1.6-5.014 4.143-5.014 2.543 0 4.141 1.381 4.141 5.014v5.45h7.557v-4.941C23.834 4.65 19.764 0 11.917 0 4.07 0 0 4.65 0 12.789v26.45c0 8.138 4.069 12.79 11.917 12.79 7.847 0 11.917-4.652 11.917-12.79V32.48h-7.557ZM46.433.581l8.138 50.866h-8.065l-1.382-9.228h-9.808l-1.382 9.228h-7.338L34.734.581h11.699Zm-6.322 9.01-3.778 25.725h7.701L40.257 9.59h-.144l-.002.001ZM83.13 51.447H74.99c-.436-1.308-.727-2.108-.727-6.25v-7.993c0-4.723-1.599-6.467-5.232-6.467H66.27v20.71h-7.993V.581H70.34c8.283 0 11.843 3.852 11.843 11.7v3.996c0 5.232-1.672 8.574-5.232 10.246 3.998 1.816 5.305 5.594 5.305 10.9v7.847c0 2.471.074 4.287.873 6.177ZM70.12 7.847H66.27v15.624h3.124c2.98 0 4.796-1.307 4.796-5.377V13.08c0-3.633-1.234-5.233-4.069-5.233ZM107.49.581l8.138 50.866h-8.066l-1.38-9.228h-9.81l-1.38 9.228h-7.34L95.79.581h11.699Zm-6.322 9.01-3.778 25.725h7.702L101.313 9.59h-.146v.001Zm21.854-9.01h-8.065l7.847 50.866h11.917L142.567.581h-7.338l-6.032 41.49h-.146l-6.03-41.49Zm38.712 0 8.138 50.866h-8.065l-1.38-9.228h-9.81l-1.382 9.228h-7.338L150.034.581h11.699Zm-6.322 9.01-3.778 25.725h7.703L155.557 9.59h-.146v.001Zm36.378 41.856H200V.581h-7.121v30.446h-.146L184.667.581H174.64v50.866h7.194V14.604h.145l9.81 36.843Z"/></svg>