<svg xmlns="http://www.w3.org/2000/svg" width="200" height="52" fill="none"><path fill="#9C9C9C" fill-rule="evenodd" d="M30.295 22.171h3.575c3.694 0 5.69 4.332 3.284 7.138l-3.5 4.08a9.726 9.726 0 0 0 3.577 6.124A9.749 9.749 0 0 0 50.417 38.5a9.723 9.723 0 0 0 2.599-6.601 3.237 3.237 0 0 1 3.245-3.242 3.247 3.247 0 0 1 3.245 3.242 16.197 16.197 0 0 1-8.768 14.39 16.247 16.247 0 0 1-20.443-4.665 16.248 16.248 0 0 1-26.149-.248A16.197 16.197 0 0 1 1.082 31.9a3.24 3.24 0 0 1 3.246-3.242 3.247 3.247 0 0 1 3.246 3.242 9.72 9.72 0 0 0 2.587 6.617 9.742 9.742 0 0 0 16.776-5.13l-3.503-4.078c-2.405-2.805-.41-7.136 3.29-7.136h3.57Z" clip-rule="evenodd"/><path fill="#9C9C9C" d="M45.44 13.526a6.487 6.487 0 0 0 5.998-8.967 6.489 6.489 0 0 0-8.48-3.509 6.486 6.486 0 0 0-3.513 8.475 6.487 6.487 0 0 0 5.996 4.001Zm-30.293 0a6.487 6.487 0 0 0 5.996-8.966A6.488 6.488 0 0 0 15.147.558 6.487 6.487 0 0 0 9.15 9.525a6.487 6.487 0 0 0 5.997 4.001Zm89.386-11.384c1 0 1.821.286 2.463.857.642.57.963 1.32.963 2.25v32.02c0 .964-.302 1.731-.91 2.302-.606.571-1.41.857-2.408.857-1 0-1.803-.286-2.411-.856-.606-.572-.91-1.34-.91-2.302v-1.34c-.786 1.463-1.928 2.605-3.428 3.426-1.463.822-3.14 1.232-5.033 1.232-2.25 0-4.266-.57-6.05-1.713-1.75-1.142-3.123-2.749-4.123-4.82-.965-2.105-1.447-4.514-1.447-7.227 0-2.714.482-5.087 1.447-7.123 1-2.034 2.373-3.605 4.123-4.712 1.749-1.106 3.766-1.66 6.05-1.66 1.892 0 3.57.393 5.034 1.179a8.171 8.171 0 0 1 3.373 3.32V5.14c0-.892.285-1.607.856-2.142.608-.571 1.411-.857 2.411-.857Zm-9.907 33.253c2.142 0 3.784-.732 4.927-2.196 1.177-1.463 1.767-3.553 1.767-6.265 0-2.713-.59-4.784-1.767-6.21-1.142-1.465-2.766-2.198-4.873-2.198-2.142 0-3.802.715-4.98 2.144-1.178 1.427-1.767 3.48-1.767 6.158 0 2.713.59 4.818 1.767 6.318 1.178 1.5 2.82 2.249 4.926 2.249Zm32.16 5.193c-2.677 0-5.033-.553-7.068-1.66-2-1.106-3.552-2.694-4.659-4.765-1.106-2.07-1.66-4.48-1.66-7.229 0-2.748.552-5.14 1.66-7.175 1.107-2.07 2.659-3.659 4.658-4.766 2.036-1.106 4.392-1.66 7.069-1.66 2.677 0 5.015.553 7.014 1.66a11.115 11.115 0 0 1 4.659 4.766c1.107 2.034 1.661 4.427 1.661 7.175 0 2.75-.554 5.158-1.661 7.23a11.115 11.115 0 0 1-4.659 4.765c-1.999 1.105-4.338 1.66-7.014 1.66Zm-.053-5.193c2.178 0 3.837-.715 4.979-2.142 1.143-1.428 1.714-3.535 1.714-6.319 0-2.748-.571-4.837-1.714-6.264-1.142-1.465-2.784-2.196-4.926-2.196-2.141 0-3.803.731-4.979 2.196-1.143 1.427-1.715 3.515-1.715 6.264 0 2.784.571 4.891 1.715 6.319 1.142 1.427 2.784 2.142 4.926 2.142Zm41.08-21.954c1 0 1.803.285 2.409.855.608.572.911 1.34.911 2.303V37.75c0 4.105-1.142 7.21-3.426 9.318-2.286 2.106-5.658 3.158-10.121 3.158-3.891 0-7.14-.73-9.745-2.194-1.321-.786-1.982-1.732-1.982-2.839 0-.785.179-1.409.536-1.873a1.875 1.875 0 0 1 1.498-.698c.323 0 .715.073 1.179.216a41.2 41.2 0 0 1 1.445.588c1.118.476 2.263.887 3.428 1.232 1.035.285 2.213.429 3.534.429 4.676 0 7.014-2.284 7.014-6.856v-3.426c-.785 1.465-1.927 2.605-3.426 3.428-1.5.785-3.213 1.178-5.141 1.178-2.285 0-4.319-.536-6.105-1.606-1.749-1.108-3.122-2.642-4.122-4.605-1-1.965-1.5-4.23-1.5-6.801 0-2.57.483-4.837 1.446-6.8 1-2 2.392-3.535 4.176-4.606 1.786-1.106 3.82-1.66 6.105-1.66 1.928 0 3.641.41 5.141 1.231a8.02 8.02 0 0 1 3.426 3.374v-1.392c0-.928.304-1.678.911-2.25.607-.57 1.41-.855 2.409-.855Zm-10.12 20.776c2.143 0 3.802-.697 4.979-2.088 1.215-1.393 1.821-3.303 1.821-5.73 0-2.463-.606-4.391-1.821-5.783-1.177-1.392-2.836-2.088-4.979-2.088-2.106 0-3.767.696-4.98 2.088-1.213 1.392-1.821 3.32-1.821 5.783 0 2.427.608 4.336 1.821 5.73 1.213 1.392 2.874 2.088 4.98 2.088Zm29.85 6.371c-3.89 0-7.031-.767-9.423-2.303-1.142-.677-1.713-1.642-1.713-2.89 0-.715.196-1.286.588-1.714.393-.464.875-.697 1.446-.697.606 0 1.446.287 2.517.858 1.142.536 2.178.946 3.105 1.232.965.285 2.178.427 3.641.427 1.5 0 2.66-.25 3.482-.75.856-.5 1.284-1.194 1.284-2.088 0-.605-.178-1.088-.536-1.445-.321-.358-.927-.679-1.82-.964-.857-.321-2.177-.678-3.963-1.071-3.176-.642-5.462-1.553-6.854-2.73-1.356-1.178-2.034-2.803-2.034-4.873 0-1.57.463-2.981 1.392-4.231.928-1.285 2.195-2.266 3.802-2.945 1.642-.713 3.498-1.071 5.568-1.071 1.5 0 2.946.197 4.338.59 1.328.329 2.594.87 3.749 1.605 1.142.714 1.713 1.66 1.713 2.84 0 .712-.196 1.32-.589 1.819-.393.464-.875.697-1.447.697-.392 0-.785-.072-1.177-.214-.47-.24-.934-.49-1.392-.75-1.036-.536-1.928-.928-2.678-1.178-.75-.286-1.678-.429-2.784-.429-1.321 0-2.374.268-3.159.803-.75.535-1.125 1.268-1.125 2.196 0 .892.393 1.57 1.179 2.034.785.465 2.302.929 4.551 1.393 2.392.5 4.266 1.07 5.622 1.714 1.357.642 2.32 1.446 2.891 2.409.608.964.911 2.196.911 3.695 0 2.427-1.017 4.373-3.052 5.836-2 1.463-4.677 2.195-8.033 2.195Z"/></svg>