<svg xmlns="http://www.w3.org/2000/svg" width="200" height="47" fill="none"><path fill="#9C9C9C" d="M3.278 36.673c-.99 0-1.793-.307-2.407-.922C.29 35.137 0 34.334 0 33.344V3.38c0-.99.273-1.758.82-2.304.58-.547 1.365-.82 2.356-.82h17.978c2.083 0 3.124.888 3.124 2.664 0 1.741-1.041 2.612-3.124 2.612H6.504v9.834H20.13c2.083 0 3.125.888 3.125 2.663 0 1.742-1.042 2.613-3.125 2.613H6.505v12.702c0 .99-.29 1.793-.87 2.407-.581.615-1.367.922-2.357.922Zm30.396 0c-.922 0-1.69-.256-2.305-.768-.58-.547-.87-1.315-.87-2.305V3.022c0-.99.29-1.742.87-2.254C31.984.256 32.752 0 33.675 0c.922 0 1.69.256 2.305.768.615.512.922 1.264.922 2.254V33.6c0 .99-.307 1.758-.922 2.305-.614.512-1.383.768-2.305.768Zm29.652-7.17c.58 0 1.041.221 1.383.665.375.444.563 1.042.563 1.793 0 1.059-.632 1.946-1.895 2.663-1.161.65-2.476 1.178-3.944 1.588-1.468.376-2.868.564-4.2.564-4.03 0-7.222-1.161-9.578-3.483-2.356-2.322-3.534-5.498-3.534-9.527 0-2.561.512-4.832 1.536-6.812 1.025-1.98 2.459-3.517 4.303-4.61 1.878-1.093 3.995-1.64 6.351-1.64 2.254 0 4.217.496 5.89 1.486s2.97 2.39 3.893 4.2c.922 1.81 1.383 3.944 1.383 6.403 0 1.468-.649 2.202-1.947 2.202H48.42c.206 2.356.871 4.098 1.998 5.224 1.127 1.093 2.766 1.64 4.917 1.64 1.093 0 2.05-.137 2.869-.41.853-.273 1.81-.649 2.868-1.127 1.024-.546 1.776-.82 2.254-.82Zm-8.863-14.29c-1.741 0-3.141.546-4.2 1.638-1.024 1.093-1.639 2.664-1.843 4.712h11.575c-.068-2.082-.58-3.653-1.536-4.712-.957-1.092-2.288-1.639-3.996-1.639Zm37.467 16.44c.615.615.922 1.315.922 2.1 0 .752-.29 1.435-.87 2.05-.58.58-1.264.87-2.05.87-.853 0-1.587-.358-2.201-1.075l-7.222-7.99-7.222 7.99c-.65.683-1.383 1.024-2.203 1.024-.751 0-1.417-.29-1.997-.87-.58-.581-.871-1.247-.871-1.998 0-.786.307-1.486.922-2.1l7.478-8.144-7.068-7.683c-.615-.615-.922-1.315-.922-2.1 0-.786.29-1.451.87-1.998.58-.58 1.247-.87 1.998-.87.82 0 1.554.341 2.202 1.024l6.813 7.478 6.812-7.478c.648-.683 1.383-1.024 2.202-1.024.785 0 1.451.29 1.998.87.58.547.87 1.213.87 1.998 0 .785-.307 1.485-.922 2.1l-7.068 7.683 7.53 8.144Zm28.337-13.931c2.083.58 3.688 1.639 4.815 3.176 1.161 1.536 1.741 3.414 1.741 5.634 0 3.073-1.11 5.48-3.329 7.222-2.185 1.741-5.207 2.612-9.066 2.612h-13.215c-.99 0-1.775-.273-2.356-.82-.546-.546-.82-1.314-.82-2.304V3.38c0-.99.274-1.758.82-2.304.58-.547 1.366-.82 2.356-.82h12.702c3.756 0 6.692.837 8.809 2.51 2.152 1.639 3.227 3.944 3.227 6.914 0 1.913-.512 3.569-1.536 4.969-.991 1.4-2.374 2.424-4.149 3.073h.001Zm-15.776-2.254h8.349c4.542 0 6.812-1.69 6.812-5.07 0-1.708-.563-2.971-1.69-3.79-1.127-.82-2.834-1.23-5.122-1.23h-8.349v10.09Zm9.22 15.776c2.39 0 4.132-.427 5.224-1.28 1.093-.854 1.639-2.186 1.639-3.996s-.563-3.158-1.69-4.046c-1.093-.888-2.817-1.332-5.173-1.332h-9.22v10.654h9.22Zm21.902 5.43c-.922 0-1.69-.257-2.304-.77-.581-.546-.871-1.314-.871-2.304V3.022c0-.99.29-1.742.871-2.254.614-.512 1.382-.768 2.304-.768.922 0 1.691.256 2.305.768.615.512.922 1.264.922 2.254V33.6c0 .99-.307 1.758-.922 2.305-.614.512-1.383.768-2.305.768Zm21.252.102c-2.561 0-4.815-.53-6.761-1.588-1.913-1.059-3.398-2.578-4.456-4.559-1.059-1.98-1.588-4.285-1.588-6.914 0-2.63.529-4.917 1.588-6.864 1.058-1.98 2.543-3.5 4.456-4.558 1.946-1.059 4.2-1.588 6.761-1.588s4.797.53 6.709 1.588a10.63 10.63 0 0 1 4.456 4.558c1.059 1.947 1.588 4.234 1.588 6.864 0 2.629-.529 4.934-1.588 6.914a10.63 10.63 0 0 1-4.456 4.559c-1.912 1.058-4.148 1.588-6.709 1.588Zm-.052-4.969c2.083 0 3.671-.683 4.764-2.048 1.092-1.366 1.639-3.38 1.639-6.044 0-2.63-.547-4.627-1.639-5.993-1.093-1.4-2.664-2.1-4.712-2.1-2.049 0-3.637.7-4.764 2.1-1.092 1.366-1.639 3.363-1.639 5.993 0 2.663.547 4.678 1.639 6.044 1.093 1.365 2.664 2.048 4.712 2.048Zm39.296-21c.956 0 1.724.274 2.304.82.581.546.871 1.28.871 2.202v20.232c0 3.927-1.093 6.898-3.278 8.912-2.185 2.015-5.412 3.022-9.68 3.022-3.722 0-6.83-.7-9.322-2.1-1.264-.751-1.895-1.656-1.895-2.715 0-.75.17-1.348.512-1.792a1.794 1.794 0 0 1 1.434-.666c.307 0 .683.068 1.127.205.444.17.905.358 1.383.563 1.229.512 2.322.905 3.278 1.178.99.273 2.117.41 3.38.41 4.473 0 6.71-2.185 6.71-6.556v-3.278c-.751 1.4-1.844 2.493-3.278 3.278-1.434.751-3.073 1.127-4.917 1.127-2.186 0-4.132-.512-5.839-1.537-1.673-1.058-2.988-2.527-3.944-4.405-.956-1.878-1.434-4.046-1.434-6.505 0-2.458.461-4.626 1.383-6.504.956-1.913 2.287-3.38 3.995-4.405 1.707-1.059 3.653-1.588 5.839-1.588 1.844 0 3.483.393 4.917 1.178a7.67 7.67 0 0 1 3.278 3.227v-1.332c0-.888.29-1.605.871-2.151.58-.546 1.348-.82 2.305-.82Zm-9.681 19.873c2.049 0 3.637-.665 4.763-1.997 1.161-1.332 1.742-3.159 1.742-5.48 0-2.357-.581-4.2-1.742-5.532-1.126-1.332-2.714-1.998-4.763-1.998-2.015 0-3.602.666-4.763 1.998-1.161 1.331-1.742 3.175-1.742 5.531 0 2.322.581 4.15 1.742 5.48 1.161 1.333 2.748 1.998 4.763 1.998Z"/></svg>