<svg xmlns="http://www.w3.org/2000/svg" width="201" height="72" fill="none"><g clip-path="url(#a)"><path fill="#9C9C9C" d="m35.873 15.529-6.627 40.75h-9.52l2.418-14.715H11.89l-2.37 14.714H0L6.68 15.53h9.468l-2.84 17.205h10.256l2.843-17.205h9.466Zm19.528 40.75.317-8.886h-8.784l-2.578 8.885H34.31L47.83 15.53h17.355l.212 40.75h-9.995Zm-2.156-30.846L49.091 39.81h6.89l.578-14.374-3.314-.002Zm53.003-9.904-6.629 40.75h-9.521L83.472 33.98 79.897 56.28h-9.523l6.68-40.75h9.783l6.523 20.828 3.418-20.828h9.471Zm22.212 0c4.593 0 7.872 1.246 9.835 3.735 1.438 1.887 2.155 4.245 2.155 7.075 0 1.02-.086 2.094-.26 3.226l-2.052 12.621c-.702 4.263-2.421 7.678-5.155 10.244-2.736 2.566-6.277 3.848-10.628 3.848H107.05l6.681-40.749h14.729Zm-3.315 8.83h-3.419l-3.734 23.089h4.997c1.647 0 2.927-.472 3.839-1.414.948-.982 1.596-2.566 1.944-4.753l1.528-9.283a13.78 13.78 0 0 0 .21-2.265c0-3.585-1.787-5.374-5.365-5.374Zm43.496 31.92h-26.405l6.683-40.75h26.405l-1.473 8.83h-16.937l-1.21 7.64h13.991l-1.471 8.828h-13.993l-1.051 6.622h16.937l-1.476 8.83Zm30.046 0h-23.986l6.681-40.75h9.468l-5.207 31.92h14.517l-1.473 8.83Zm-92.889 7.25H197.3L194.442 72H102.94l2.858-8.47ZM10.008 0h100.08l-2.86 8.47H7.148L10.008 0Z"/></g><defs><clipPath id="a"><path fill="#fff" d="M0 0h200.16v72H0z"/></clipPath></defs></svg>