<svg xmlns="http://www.w3.org/2000/svg" width="200" height="40" fill="none"><mask id="a" width="200" height="40" x="0" y="0" maskUnits="userSpaceOnUse" style="mask-type:luminance"><path fill="#fff" d="M0 0h200v39.423H0V0Z"/></mask><g mask="url(#a)"><path fill="#9C9C9C" fill-rule="evenodd" d="M13.399 34.733a.836.836 0 0 1-.659-.33 2.34 2.34 0 0 1-.432-.99c-.105-.457-.185-.919-.24-1.384-.067-.6-.101-1.202-.103-1.805-.02-1.325-.015-2.65.014-3.975.017-.813.025-1.448.025-1.906V9.197c0-.746.005-1.313.013-1.703.009-.39.039-.83.088-1.321.029-.365.092-.727.191-1.08.096-.272.224-.532.38-.775.144-.255.354-.465.609-.61.296-.148.6-.278.912-.394.402-.149.818-.255 1.241-.317a36.6 36.6 0 0 1 1.662-.204V1.394l-.433-.433H1.357l-.405.433v1.194c2.57.153 4.006.882 4.31 2.186.176 1.1.261 2.214.253 3.329v23.199a23.297 23.297 0 0 1-.153 3.608c-.07.187-.173.358-.303.508a9.507 9.507 0 0 1-.62.673 8.22 8.22 0 0 0-.495.521v.89c13.065 0 21.151.084 24.26.255l1.091-3.685-.684-.484A152.145 152.145 0 0 1 13.4 34.733h-.001Zm24.285-10.62a.698.698 0 0 1-.152.024c-.253 0-.38-.092-.38-.279 0-.842.064-1.683.19-2.516.143-.907.38-1.798.71-2.655.318-.868.754-1.69 1.295-2.439a6.087 6.087 0 0 1 4.93-2.427 3.979 3.979 0 0 1 3.524 1.754 6.975 6.975 0 0 1 1.192 4.014 1.287 1.287 0 0 1-.85 1.195 41.398 41.398 0 0 1-4.246 1.449 286.193 286.193 0 0 0-6.058 1.855.714.714 0 0 0-.155.024ZM52.74 32.04c-3.043 1.846-5.67 2.77-7.882 2.77a7.208 7.208 0 0 1-4.209-1.246A7.536 7.536 0 0 1 38 30.452a9.61 9.61 0 0 1-.848-4.027c11.053-3.439 16.63-5.159 16.73-5.159a1.873 1.873 0 0 0 1.496-1.93 7.249 7.249 0 0 0-.85-3.583 6.197 6.197 0 0 0-2.293-2.376 11.11 11.11 0 0 0-3.131-1.245 15.987 15.987 0 0 0-3.64-.395 15.347 15.347 0 0 0-6.386 1.284 12.243 12.243 0 0 0-4.575 3.43 15.6 15.6 0 0 0-2.65 4.829 17.265 17.265 0 0 0-.913 5.603c0 3.913 1.058 6.844 3.17 8.792 1.91 1.779 4.605 2.667 8.086 2.667a13.05 13.05 0 0 0 5.742-1.397 44.323 44.323 0 0 0 6.148-3.712l-.555-.988-.79-.205ZM86.885 5.247a7.42 7.42 0 0 0-3.727-4.04 15.735 15.735 0 0 0-6.718-1.22c-1.68-.01-3.353.196-4.98.61a15.158 15.158 0 0 0-4.285 1.83 8.803 8.803 0 0 0-3.08 3.317 9.908 9.908 0 0 0-1.141 4.815c-.001 1.199.29 2.38.849 3.442a9.616 9.616 0 0 0 2.13 2.784c.94.829 1.94 1.589 2.99 2.273a34.822 34.822 0 0 0 3.271 1.931 56.705 56.705 0 0 1 3.118 1.73 14 14 0 0 1 2.37 1.689c1.876 1.745 2.814 3.404 2.814 4.98a6.126 6.126 0 0 1-1.952 4.459 6.413 6.413 0 0 1-4.69 1.944 6.693 6.693 0 0 1-5.36-2.44 8.37 8.37 0 0 1-2.066-5.566l-.988-.355-5.044 5.666a11.81 11.81 0 0 0 4.539 3.901 13.313 13.313 0 0 0 5.956 1.36 18.853 18.853 0 0 0 5.552-.865 20.49 20.49 0 0 0 5.121-2.35 12.378 12.378 0 0 0 3.764-3.76 8.82 8.82 0 0 0 1.458-4.842 7.509 7.509 0 0 0-.481-2.706 8.654 8.654 0 0 0-1.243-2.236 11.097 11.097 0 0 0-2.117-1.994 27.084 27.084 0 0 0-2.7-1.793 92.449 92.449 0 0 0-3.396-1.843 43.932 43.932 0 0 1-2.358-1.232 28.24 28.24 0 0 1-2.132-1.38 10.688 10.688 0 0 1-1.925-1.692 7.836 7.836 0 0 1-1.218-1.982 6.04 6.04 0 0 1-.506-2.452 5.159 5.159 0 0 1 1.48-3.736 5.222 5.222 0 0 1 3.917-1.524 6.075 6.075 0 0 1 4.779 2.007 8.888 8.888 0 0 1 2.167 4.854l.887.279 4.945-3.863Zm24.652 9.745a5.14 5.14 0 0 0-1.901-1.906 9.168 9.168 0 0 0-2.51-.978c-.945-.209-1.91-.311-2.877-.304a15.024 15.024 0 0 0-5.412.928 11.76 11.76 0 0 0-4.005 2.452 13.3 13.3 0 0 0-2.637 3.594 17.08 17.08 0 0 0-1.508 4.257 22.205 22.205 0 0 0-.456 4.548 13.37 13.37 0 0 0 .544 3.834 11.422 11.422 0 0 0 1.635 3.367 7.543 7.543 0 0 0 2.98 2.44 9.981 9.981 0 0 0 4.347.902c4.749 0 9.21-2.093 13.384-6.276l-.507-.738-.633-.151c-3.093 2.388-5.949 3.582-8.569 3.582a6.057 6.057 0 0 1-2.825-.648 5.697 5.697 0 0 1-2.019-1.676c-.53-.728-.96-1.522-1.28-2.363a12.674 12.674 0 0 1-.723-2.604c-.134-.84-.202-1.69-.203-2.541.006-1.082.1-2.161.28-3.227.198-1.188.496-2.356.887-3.495a7.297 7.297 0 0 1 1.8-2.948 3.884 3.884 0 0 1 2.788-1.155 3.726 3.726 0 0 1 3.447 1.88 8.915 8.915 0 0 1 1.116 4.625l.887.356 4.792-2.845a6.463 6.463 0 0 0-.822-2.91Zm9.291 7.56a15.6 15.6 0 0 1 .672-2.935c.291-.928.705-1.811 1.229-2.63a5.868 5.868 0 0 1 1.965-1.842 5.413 5.413 0 0 1 2.801-.724 5.598 5.598 0 0 1 3.029.8 5.286 5.286 0 0 1 1.964 2.186c.459.93.791 1.916.988 2.934.209 1.096.311 2.212.305 3.33 0 1.015-.009 1.863-.026 2.54-.027.815-.086 1.629-.177 2.44a14.777 14.777 0 0 1-.418 2.362 12.113 12.113 0 0 1-.773 1.983 4.991 4.991 0 0 1-1.23 1.651 6.097 6.097 0 0 1-1.8 1.016 6.978 6.978 0 0 1-2.471.407 4.496 4.496 0 0 1-2.599-.788 5.818 5.818 0 0 1-1.812-1.944 12.017 12.017 0 0 1-1.09-2.655 17.51 17.51 0 0 1-.584-2.783 21.154 21.154 0 0 1-.152-2.452c-.001-.968.059-1.936.179-2.896Zm-3.143 13.137c1.841 1.677 4.765 2.516 8.771 2.516a18.22 18.22 0 0 0 4.398-.509 12.98 12.98 0 0 0 3.825-1.638 11.333 11.333 0 0 0 3.055-2.834 13.254 13.254 0 0 0 2.003-4.218c.511-1.836.758-3.735.735-5.64a10.581 10.581 0 0 0-3.473-8.183c-2.113-1.897-5.181-2.846-9.202-2.846-4.022 0-7.335 1.246-9.937 3.736a12.47 12.47 0 0 0-3.904 9.427c0 4.54 1.241 7.936 3.726 10.19h.003Zm39.671-20.125c1.352 0 2.315.271 2.89.814.536.654.874 1.448.975 2.288a18.6 18.6 0 0 1 .393 3.01c.034.89.051 2.038.051 3.444-.001 1.825-.014 3.65-.037 5.476a52.45 52.45 0 0 0 .011 1.944c.005.556.039 1.112.102 1.664.051.365.119.763.203 1.194.059.361.179.709.355 1.029.152.255.338.486.556.687a3.924 3.924 0 0 0 2.787 1.016c1.269 0 2.721-.645 4.361-1.931a47.82 47.82 0 0 0 3.904-3.635l-.583-.865h-.609a6.177 6.177 0 0 1-3.472 1.347 1.983 1.983 0 0 1-1.471-.534 1.967 1.967 0 0 1-.444-.494 3.65 3.65 0 0 1-.266-1.042 14.685 14.685 0 0 1-.126-2.198c0-.559.029-1.462.088-2.706.047-.885.077-1.77.089-2.656v-1.525c.017-1.643.013-2.781-.012-3.418a24.239 24.239 0 0 0-.292-2.591 4.717 4.717 0 0 0-.786-2.262 5.289 5.289 0 0 0-1.572-1.168 5.514 5.514 0 0 0-2.586-.547c-2.974 0-6.422 1.22-10.342 3.66l-.609-.23a4.812 4.812 0 0 0-.874-2.603c-.499-.654-1.356-.98-2.573-.98a6.92 6.92 0 0 0-2.142.369c-.803.27-1.569.637-2.283 1.092a34.98 34.98 0 0 0-2.003 1.348c-.566.414-1.221.918-1.964 1.511l.937 1.245c.173-.111.346-.221.521-.33.295-.186.553-.338.773-.457.219-.119.481-.258.785-.42a5.38 5.38 0 0 1 .85-.37 2.35 2.35 0 0 1 .696-.128 1.58 1.58 0 0 1 .837.217c.258.17.452.42.556.711.127.308.236.62.329.94.103.43.163.868.178 1.31.034.576.054 1.042.061 1.396.008.355.012.889.013 1.601v.433c0 1.66-.127 6.741-.38 15.245l.633.356 5.704-1.652c-.169-.728-.296-3.023-.381-6.884a509.773 509.773 0 0 1-.123-11.334c2.941-1.593 5.036-2.389 6.287-2.389l.005.002Zm24.589 8.664a.667.667 0 0 1-.152.027c-.253 0-.38-.094-.381-.28.001-.842.065-1.683.192-2.516.142-.907.38-1.798.708-2.655.319-.868.753-1.69 1.294-2.44a6.08 6.08 0 0 1 4.931-2.427 3.978 3.978 0 0 1 3.523 1.754 6.97 6.97 0 0 1 1.191 4.015 1.29 1.29 0 0 1-.849 1.194 41.557 41.557 0 0 1-4.245 1.449 284.032 284.032 0 0 0-6.059 1.856.759.759 0 0 0-.152.024l-.001-.001Zm15.058 7.929c-3.043 1.847-5.671 2.77-7.884 2.769a7.211 7.211 0 0 1-4.208-1.244 7.542 7.542 0 0 1-2.649-3.113 9.612 9.612 0 0 1-.85-4.029c11.053-3.437 16.63-5.156 16.732-5.156a1.875 1.875 0 0 0 1.495-1.932 7.246 7.246 0 0 0-.849-3.583 6.188 6.188 0 0 0-2.294-2.376 11.12 11.12 0 0 0-3.131-1.245 15.976 15.976 0 0 0-3.64-.394 15.346 15.346 0 0 0-6.385 1.283 12.247 12.247 0 0 0-4.575 3.431 15.607 15.607 0 0 0-2.649 4.828 17.245 17.245 0 0 0-.912 5.603c0 3.913 1.056 6.843 3.168 8.792 1.91 1.78 4.605 2.668 8.087 2.668 1.995-.021 3.96-.499 5.742-1.398a44.44 44.44 0 0 0 6.147-3.71l-.555-.99-.79-.204Z" clip-rule="evenodd"/></g></svg>