<svg xmlns="http://www.w3.org/2000/svg" width="200" height="49" fill="none"><path fill="#9C9C9C" d="M65.708 48V0h-12.13L28.216 37.038l-4.28-5.384c7.653-1.168 11.934-7.913 11.934-15.113 0-6.876-3.762-12.65-8.821-14.855C24.519.584 20.757 0 15.762 0H0v48h11.74V32.497h.13L22.962 48h12.39l4.216-6.94h13.88V48h12.26ZM11.74 24.13V10.768h4.67c4.606 0 7.72 2.335 7.72 6.486 0 4.41-2.92 6.876-7.784 6.876H11.74Zm41.709 7.2h-8.044l7.914-13.298h.13V31.33ZM114.905 48V0h-11.74l.519 30.357L85.003 0H74.43v48h11.74l-.324-29.319L104.268 48h10.637Zm35.403 0V37.232h-14.919v-8.237h14.465V18.227h-14.465v-7.46h14.919V0h-26.659v48h26.659Zm48.733 0-16.93-24.065L198.003 0h-12.844l-13.556 21.6h-.13V0h-12.259v48h12.259V27.243h.13L184.705 48h14.336Z"/></svg>