<svg xmlns="http://www.w3.org/2000/svg" width="200" height="35" fill="none"><path fill="#9C9C9C" d="M22.086 33.627a7.133 7.133 0 0 1-3.45-.784 7.009 7.009 0 0 1-2.626-2.337 11.871 11.871 0 0 1-7.622 3.121c-5.089 0-7.847-3.534-6.916-8.602.709-3.81 3.877-7.628 4.763-10.693-1.715-1.029-4.26-1.745-5.452.357L0 14.22c.624-2.304 2.134-3.836 4.314-3.836s3.793 1.275 5.872.1h1.658c-.885 4.59-3.122 8.262-4.314 14.688-.727 3.94.624 5.729 2.908 5.729a6.928 6.928 0 0 0 4.36-2.305 18.372 18.372 0 0 1-1.351-7.06c0-5.58 2.6-11.465 6.961-11.465 2.237 0 3.895 1.533 3.895 5.169 0 3.635-2.236 9.262-5.088 12.796a3.666 3.666 0 0 0 1.266 2.156 3.764 3.764 0 0 0 2.369.865c4.156 0 7.063-6.143 7.063-11.824 0-5.682-2.497-5.426-2.282-7.344a1.826 1.826 0 0 1 .64-1.247 1.882 1.882 0 0 1 1.344-.442c1.296 0 3 1.615 3 8.17 0 8.354-4.509 15.257-10.53 15.257Zm-.941-20.673c-1.296 0-2.545 4.71-2.703 9.575a20.55 20.55 0 0 0 .056 3.121 24.245 24.245 0 0 0 3.485-10.493c-.01-1.653-.317-2.204-.84-2.204l.002.001Zm20.007 20.462a3.78 3.78 0 0 1-1.61-.184 3.734 3.734 0 0 1-1.377-.84 3.666 3.666 0 0 1-.885-1.335 3.62 3.62 0 0 1-.229-1.58c0-2.248 2.964-13.458 2.964-15.303 0-.87-.205-1.385-.987-1.385a4.537 4.537 0 0 0-2.34 1.128V12.33a7.694 7.694 0 0 1 4.938-1.992 3.792 3.792 0 0 1 2.992 1.06c.39.379.692.838.884 1.346.19.506.268 1.048.224 1.587 0 2.249-2.962 13.412-2.962 15.248 0 .872.204 1.386.988 1.386a4.896 4.896 0 0 0 2.339-1.074v1.533a7.59 7.59 0 0 1-4.939 1.992ZM44.786 1.02a2.84 2.84 0 0 1 1.184.219c.374.157.71.392.981.689a2.714 2.714 0 0 1 .696 2.214 3.507 3.507 0 0 1-1.144 2.202 3.608 3.608 0 0 1-2.332.92 2.832 2.832 0 0 1-2.165-.908 2.715 2.715 0 0 1-.696-2.214c.1-.85.507-1.632 1.144-2.202a3.609 3.609 0 0 1 2.332-.92Zm11.536 27.587c-.26 1.386-.102 2.35.886 2.35a4.69 4.69 0 0 0 2.339-1.074l.093 1.541a7.694 7.694 0 0 1-4.939 1.993c-3.224 0-4.472-2.304-3.997-5.168l3.168-17.763c1.053-5.93.69-6.712-2.535-6.712l.205-1.431 9.72-1.268-4.94 27.532Zm27.333-.047c-.261 1.387-.16 2.406.885 2.406a4.959 4.959 0 0 0 2.34-1.13v1.588a7.515 7.515 0 0 1-4.94 1.993 3.767 3.767 0 0 1-2.582-.781 3.661 3.661 0 0 1-1.37-2.294 8.46 8.46 0 0 1-2.935 2.42 8.593 8.593 0 0 1-3.717.903c-6.179 0-8.779-5.37-7.586-11.824 1.193-6.453 6.755-11.723 13.046-11.723a8.859 8.859 0 0 1 4.277 1l.159-.816c1.23-6.316.662-6.528-2.563-6.528l.159-1.431 9.765-1.268-4.939 27.486h.001Zm-6.7-16.128c-3.589 0-5.973 4.194-6.915 9.363-.988 5.425-.364 9.18 3.01 9.18 2.283 0 4.883-2.755 5.665-6.959l1.92-10.648a6.667 6.667 0 0 0-3.68-.936Zm23.119 21.241c-7.222 0-9.198-5.122-8.312-10.033l2.357-13.154c1.091-5.94.728-6.757-2.496-6.757l.203-1.432 9.748-1.222-1.975 11.155a8.785 8.785 0 0 1 5.452-2.102c6.29 0 9.244 5.269 8.107 11.722-1.137 6.454-6.923 11.823-13.084 11.823Zm3.374-21.113a5.021 5.021 0 0 0-2.903.994 4.901 4.901 0 0 0-1.756 2.485L97.335 24.3c-.886 4.911.885 6.912 3.122 6.912 3.271 0 5.302-3.58 6.392-9.464.969-5.27.085-9.161-3.41-9.161l.009-.028Zm19.56 12.264c0 3.94 1.92 6.041 5.591 6.041 1.864 0 4.575-1.275 6.291-2.965l.726 1.634a13.43 13.43 0 0 1-4.354 3.028 13.595 13.595 0 0 1-5.207 1.12c-5.451 0-9.142-3.992-9.142-9.418 0-8.032 6.756-14.127 13.252-14.127 3.951 0 6.178 2.148 6.178 4.654-.046 3.892-3.792 8.262-13.335 10.034Zm6.7-12.337c-2.963 0-5.814 4.25-6.598 10.336 5.974-1.432 8.518-5.425 8.574-7.986-.01-1.432-.69-2.35-1.985-2.35h.009Zm27.836 20.93a3.769 3.769 0 0 1-2.583-.781 3.66 3.66 0 0 1-1.368-2.294 8.168 8.168 0 0 1-2.863 2.421 8.291 8.291 0 0 1-3.661.901c-6.075 0-8.675-5.37-7.455-11.823 1.221-6.453 6.691-11.714 13-11.714a9.95 9.95 0 0 1 3.895.772h5.927l-3.178 17.661c-.261 1.387-.158 2.406.886 2.406a4.965 4.965 0 0 0 2.339-1.13v1.588a7.518 7.518 0 0 1-4.939 1.993Zm-4.781-20.985c-3.485 0-5.926 4.194-6.859 9.363-.988 5.425-.307 9.18 2.796 9.18 2.386 0 4.939-2.864 5.666-6.959l1.92-10.648a6.092 6.092 0 0 0-3.514-.936h-.009Zm27.854 3.735c-1.407 0-1.771-1.073-2.18-2.203a2.52 2.52 0 0 0-.948-1.424 2.581 2.581 0 0 0-1.652-.503 3.125 3.125 0 0 0-2.126.688 3.034 3.034 0 0 0-1.099 1.919c-.158 1.387.885 2.561 2.86 4.25l2.647 2.148a6.702 6.702 0 0 1 2.209 2.857 6.6 6.6 0 0 1 .391 3.57c-.671 3.836-3.895 6.195-8.21 6.195-5.2 0-8.517-3.02-8.154-5.067.085-.538.36-1.03.779-1.386a2.35 2.35 0 0 1 1.505-.56c1.351 0 1.863 1.02 2.282 2.35.27.765.787 1.42 1.473 1.865a3.77 3.77 0 0 0 2.32.595 3.287 3.287 0 0 0 2.229-.733 3.193 3.193 0 0 0 1.145-2.02c.205-1.837-.932-2.965-3.066-4.866l-2.6-2.25a6.43 6.43 0 0 1-2.069-2.66 6.345 6.345 0 0 1-.429-3.324c.467-2.46 2.796-5.508 8.155-5.508 4.156 0 6.756 2.304 6.523 4.149a2.004 2.004 0 0 1-.612 1.342 2.066 2.066 0 0 1-1.373.576Zm19.02-3.212h-5.042l-2.441 13.604c-.522 2.819-.103 4.095 1.453 4.095.83 0 2.134-.46 3.998-2.35l.102 1.992a9.056 9.056 0 0 1-3.076 2.326 9.187 9.187 0 0 1-3.782.85c-3.532 0-5.302-2.46-4.463-7.014l2.441-13.503h-3.942l.308-2.102h3.978l1.044-6.087h5.816l-1.091 6.086h5.042l-.345 2.103Z"/></svg>