<svg xmlns="http://www.w3.org/2000/svg" width="50" height="50" fill="none"><path fill="gray" fill-opacity=".3" d="M36.538 46.154a1.923 1.923 0 1 1 0 3.846 1.923 1.923 0 0 1 0-3.846ZM48.077 46.154a1.923 1.923 0 1 1 0 3.846 1.923 1.923 0 0 1 0-3.846ZM13.461 34.615a1.923 1.923 0 1 1 0 3.847 1.923 1.923 0 0 1 0-3.847ZM25 34.615a1.923 1.923 0 1 1 0 3.847 1.923 1.923 0 0 1 0-3.847ZM36.538 34.615a1.923 1.923 0 1 1 0 3.847 1.923 1.923 0 0 1 0-3.847ZM48.077 34.615a1.923 1.923 0 1 1 0 3.847 1.923 1.923 0 0 1 0-3.847ZM13.461 23.077a1.923 1.923 0 1 1 0 3.846 1.923 1.923 0 0 1 0-3.846ZM25 23.077a1.923 1.923 0 1 1 0 3.846 1.923 1.923 0 0 1 0-3.846ZM36.538 23.077a1.923 1.923 0 1 1 0 3.846 1.923 1.923 0 0 1 0-3.846ZM48.077 23.077a1.923 1.923 0 1 1 0 3.846 1.923 1.923 0 0 1 0-3.846ZM1.923 11.539a1.923 1.923 0 1 1 0 3.846 1.923 1.923 0 0 1 0-3.846ZM13.461 11.539a1.923 1.923 0 1 1 0 3.846 1.923 1.923 0 0 1 0-3.846ZM25 11.539a1.923 1.923 0 1 1 0 3.846 1.923 1.923 0 0 1 0-3.846ZM36.538 11.539a1.923 1.923 0 1 1 0 3.846 1.923 1.923 0 0 1 0-3.846ZM48.077 11.539a1.923 1.923 0 1 1 0 3.846 1.923 1.923 0 0 1 0-3.846ZM1.923 0a1.923 1.923 0 1 1 0 3.846 1.923 1.923 0 0 1 0-3.846ZM13.461 0a1.923 1.923 0 1 1 0 3.846 1.923 1.923 0 0 1 0-3.846ZM25 0a1.923 1.923 0 1 1 0 3.846A1.923 1.923 0 0 1 25 0ZM36.538 0a1.923 1.923 0 1 1 0 3.846 1.923 1.923 0 0 1 0-3.846ZM48.077 0a1.923 1.923 0 1 1 0 3.846 1.923 1.923 0 0 1 0-3.846Z"/></svg>