<svg xmlns="http://www.w3.org/2000/svg" width="50" height="50" fill="none"><path fill="gray" fill-opacity=".3" d="M46.154 13.461a1.923 1.923 0 1 1 3.846 0 1.923 1.923 0 0 1-3.846 0ZM46.154 1.923a1.923 1.923 0 1 1 3.846 0 1.923 1.923 0 0 1-3.846 0ZM34.615 36.538a1.923 1.923 0 1 1 3.847 0 1.923 1.923 0 0 1-3.847 0ZM34.615 25a1.923 1.923 0 1 1 3.847 0 1.923 1.923 0 0 1-3.847 0ZM34.615 13.461a1.923 1.923 0 1 1 3.847 0 1.923 1.923 0 0 1-3.847 0ZM34.615 1.923a1.923 1.923 0 1 1 3.847 0 1.923 1.923 0 0 1-3.847 0ZM23.077 36.538a1.923 1.923 0 1 1 3.846 0 1.923 1.923 0 0 1-3.846 0ZM23.077 25a1.923 1.923 0 1 1 3.846 0 1.923 1.923 0 0 1-3.846 0ZM23.077 13.461a1.923 1.923 0 1 1 3.846 0 1.923 1.923 0 0 1-3.846 0ZM23.077 1.923a1.923 1.923 0 1 1 3.846 0 1.923 1.923 0 0 1-3.846 0ZM11.539 48.077a1.923 1.923 0 1 1 3.846 0 1.923 1.923 0 0 1-3.846 0ZM11.539 36.538a1.923 1.923 0 1 1 3.846 0 1.923 1.923 0 0 1-3.846 0ZM11.539 25a1.923 1.923 0 1 1 3.846 0 1.923 1.923 0 0 1-3.846 0ZM11.539 13.461a1.923 1.923 0 1 1 3.846 0 1.923 1.923 0 0 1-3.846 0ZM11.539 1.923a1.923 1.923 0 1 1 3.846 0 1.923 1.923 0 0 1-3.846 0ZM0 48.077a1.923 1.923 0 1 1 3.846 0 1.923 1.923 0 0 1-3.846 0ZM0 36.538a1.923 1.923 0 1 1 3.846 0 1.923 1.923 0 0 1-3.846 0ZM0 25a1.923 1.923 0 1 1 3.846 0A1.923 1.923 0 0 1 0 25ZM0 13.461a1.923 1.923 0 1 1 3.846 0 1.923 1.923 0 0 1-3.846 0ZM0 1.923a1.923 1.923 0 1 1 3.846 0 1.923 1.923 0 0 1-3.846 0Z"/></svg>