<svg xmlns="http://www.w3.org/2000/svg" width="50" height="50" fill="none"><path fill="gray" fill-opacity=".3" d="M13.461 3.846a1.923 1.923 0 1 1 0-3.846 1.923 1.923 0 0 1 0 3.846ZM1.923 3.846a1.923 1.923 0 1 1 0-3.846 1.923 1.923 0 0 1 0 3.846ZM36.538 15.385a1.923 1.923 0 1 1 0-3.847 1.923 1.923 0 0 1 0 3.847ZM25 15.385a1.923 1.923 0 1 1 0-3.847 1.923 1.923 0 0 1 0 3.847ZM13.461 15.385a1.923 1.923 0 1 1 0-3.847 1.923 1.923 0 0 1 0 3.847ZM1.923 15.385a1.923 1.923 0 1 1 0-3.847 1.923 1.923 0 0 1 0 3.847ZM36.538 26.923a1.923 1.923 0 1 1 0-3.846 1.923 1.923 0 0 1 0 3.846ZM25 26.923a1.923 1.923 0 1 1 0-3.846 1.923 1.923 0 0 1 0 3.846ZM13.461 26.923a1.923 1.923 0 1 1 0-3.846 1.923 1.923 0 0 1 0 3.846ZM1.923 26.923a1.923 1.923 0 1 1 0-3.846 1.923 1.923 0 0 1 0 3.846ZM48.077 38.462a1.923 1.923 0 1 1 0-3.847 1.923 1.923 0 0 1 0 3.846ZM36.538 38.462a1.923 1.923 0 1 1 0-3.847 1.923 1.923 0 0 1 0 3.846ZM25 38.462a1.923 1.923 0 1 1 0-3.847 1.923 1.923 0 0 1 0 3.846ZM13.461 38.462a1.923 1.923 0 1 1 0-3.847 1.923 1.923 0 0 1 0 3.846ZM1.923 38.462a1.923 1.923 0 1 1 0-3.847 1.923 1.923 0 0 1 0 3.846ZM48.077 50a1.923 1.923 0 1 1 0-3.846 1.923 1.923 0 0 1 0 3.846ZM36.538 50a1.923 1.923 0 1 1 0-3.846 1.923 1.923 0 0 1 0 3.846ZM25 50a1.923 1.923 0 1 1 0-3.846A1.923 1.923 0 0 1 25 50ZM13.461 50a1.923 1.923 0 1 1 0-3.846 1.923 1.923 0 0 1 0 3.846ZM1.923 50a1.923 1.923 0 1 1 0-3.846 1.923 1.923 0 0 1 0 3.846Z"/></svg>