<svg xmlns="http://www.w3.org/2000/svg" width="50" height="50" fill="none"><path fill="#E6A40B" d="M3.846 36.538a1.923 1.923 0 1 1-3.846 0 1.923 1.923 0 0 1 3.846 0ZM3.846 48.077a1.923 1.923 0 1 1-3.846 0 1.923 1.923 0 0 1 3.846 0ZM15.385 13.461a1.923 1.923 0 1 1-3.847 0 1.923 1.923 0 0 1 3.847 0ZM15.385 25a1.923 1.923 0 1 1-3.847 0 1.923 1.923 0 0 1 3.847 0ZM15.385 36.538a1.923 1.923 0 1 1-3.847 0 1.923 1.923 0 0 1 3.847 0ZM15.385 48.077a1.923 1.923 0 1 1-3.847 0 1.923 1.923 0 0 1 3.847 0ZM26.923 13.461a1.923 1.923 0 1 1-3.846 0 1.923 1.923 0 0 1 3.846 0ZM26.923 25a1.923 1.923 0 1 1-3.846 0 1.923 1.923 0 0 1 3.846 0ZM26.923 36.538a1.923 1.923 0 1 1-3.846 0 1.923 1.923 0 0 1 3.846 0ZM26.923 48.077a1.923 1.923 0 1 1-3.846 0 1.923 1.923 0 0 1 3.846 0ZM38.462 1.923a1.923 1.923 0 1 1-3.847 0 1.923 1.923 0 0 1 3.846 0ZM38.462 13.461a1.923 1.923 0 1 1-3.847 0 1.923 1.923 0 0 1 3.846 0ZM38.462 25a1.923 1.923 0 1 1-3.847 0 1.923 1.923 0 0 1 3.846 0ZM38.462 36.538a1.923 1.923 0 1 1-3.847 0 1.923 1.923 0 0 1 3.846 0ZM38.462 48.077a1.923 1.923 0 1 1-3.847 0 1.923 1.923 0 0 1 3.846 0ZM50 1.923a1.923 1.923 0 1 1-3.846 0 1.923 1.923 0 0 1 3.846 0ZM50 13.461a1.923 1.923 0 1 1-3.846 0 1.923 1.923 0 0 1 3.846 0ZM50 25a1.923 1.923 0 1 1-3.846 0A1.923 1.923 0 0 1 50 25ZM50 36.538a1.923 1.923 0 1 1-3.846 0 1.923 1.923 0 0 1 3.846 0ZM50 48.077a1.923 1.923 0 1 1-3.846 0 1.923 1.923 0 0 1 3.846 0Z"/></svg>