<svg width="26" height="26" viewBox="0 0 26 26" fill="none" xmlns="http://www.w3.org/2000/svg">
<path d="M20.5833 10.5H19.695L17.8533 5.43C17.7009 5.01195 17.4239 4.6507 17.0597 4.395C16.6955 4.1393 16.2617 4.00143 15.8167 4H14.0833C13.4875 4 13 4.4875 13 5.08333C13 5.67917 13.4875 6.16667 14.0833 6.16667H15.8167L17.3983 10.5H12.1875L11.7975 9.41667H11.895C12.4908 9.41667 12.9783 8.92917 12.9783 8.33333C12.9783 7.7375 12.4908 7.25 11.895 7.25H8.66667C8.07083 7.25 7.58333 7.7375 7.58333 8.33333C7.58333 8.92917 8.07083 9.41667 8.66667 9.41667H9.47917L11.4508 14.8333H10.725C10.2483 12.4175 8.2225 10.63 5.6875 10.5108C2.65417 10.3592 0 12.8833 0 15.9167C0 18.95 2.38333 21.3333 5.41667 21.3333C8.08167 21.3333 10.2375 19.5025 10.725 17H15.275C15.7517 19.4158 17.7775 21.2033 20.3125 21.3225C23.3458 21.4633 26 18.95 26 15.9058C26 12.8833 23.6167 10.5 20.5833 10.5ZM6.5 17H8.47167C8.01667 18.3325 6.73833 19.2533 5.2 19.1558C3.58583 19.0583 2.2425 17.6933 2.16667 16.0683C2.09083 14.1725 3.5425 12.6667 5.41667 12.6667C6.8575 12.6667 8.03833 13.5658 8.47167 14.8333H6.5C5.90417 14.8333 5.41667 15.3208 5.41667 15.9167C5.41667 16.5125 5.90417 17 6.5 17ZM15.275 14.8333H13.7583L12.9675 12.6667H16.25C15.7733 13.295 15.4267 14.0208 15.275 14.8333ZM20.4533 19.1667C18.785 19.1017 17.3767 17.6825 17.3333 16.0033C17.3117 14.9633 17.7558 14.0533 18.4708 13.4467L19.1425 15.2883C19.3483 15.8517 19.9658 16.1442 20.5292 15.9383C21.0925 15.7325 21.385 15.115 21.1792 14.5517L20.4967 12.6775L20.5075 12.6667C20.9418 12.6519 21.3747 12.7252 21.7799 12.8823C22.1851 13.0394 22.5543 13.277 22.8651 13.5808C23.1759 13.8845 23.422 14.2481 23.5884 14.6496C23.7548 15.0511 23.8381 15.4821 23.8333 15.9167C23.8333 17.78 22.3383 19.2317 20.4533 19.1667Z" fill="url(#paint0_linear_101_129)"/>
<defs>
<linearGradient id="paint0_linear_101_129" x1="13" y1="4" x2="13" y2="21.3333" gradientUnits="userSpaceOnUse">
<stop stop-color="#FEB600"/>
<stop offset="1" stop-color="#E59317"/>
</linearGradient>
</defs>
</svg>
