<svg width="120" height="28" viewBox="0 0 120 28" fill="none" xmlns="http://www.w3.org/2000/svg">
<path d="M4.44706 11.5465C5.01882 10.7065 5.80235 10.024 6.79765 9.499C7.81412 8.974 8.96824 8.7115 10.26 8.7115C11.7635 8.7115 13.1188 9.079 14.3259 9.814C15.5541 10.549 16.5176 11.599 17.2165 12.964C17.9365 14.308 18.2965 15.8725 18.2965 17.6575C18.2965 19.4425 17.9365 21.028 17.2165 22.414C16.5176 23.779 15.5541 24.8395 14.3259 25.5955C13.1188 26.3515 11.7635 26.7295 10.26 26.7295C8.94706 26.7295 7.79294 26.4775 6.79765 25.9735C5.82353 25.4485 5.04 24.7765 4.44706 23.9575V26.446H0V3.136H4.44706V11.5465ZM13.7541 17.6575C13.7541 16.6075 13.5318 15.7045 13.0871 14.9485C12.6635 14.1715 12.0918 13.5835 11.3718 13.1845C10.6768 12.7865 9.88721 12.5799 9.08471 12.586C8.28 12.586 7.51765 12.796 6.79765 13.216C6.09882 13.615 5.52706 14.203 5.08235 14.98C4.65882 15.757 4.44706 16.6705 4.44706 17.7205C4.44706 18.7705 4.65882 19.684 5.08235 20.461C5.52706 21.238 6.09882 21.8365 6.79765 22.2565C7.51765 22.6555 8.28 22.855 9.08471 22.855C9.91059 22.855 10.6729 22.645 11.3718 22.225C12.0918 21.805 12.6635 21.2065 13.0871 20.4295C13.5318 19.6525 13.7541 18.7285 13.7541 17.6575ZM23.7829 6.916C22.9994 6.916 22.3429 6.6745 21.8135 6.1915C21.3053 5.6875 21.0512 5.068 21.0512 4.333C21.0512 3.598 21.3053 2.989 21.8135 2.506C22.3429 2.002 22.9994 1.75 23.7829 1.75C24.5665 1.75 25.2124 2.002 25.7206 2.506C26.25 2.989 26.5147 3.598 26.5147 4.333C26.5147 5.068 26.25 5.6875 25.7206 6.1915C25.2124 6.6745 24.5665 6.916 23.7829 6.916ZM25.9747 8.995V26.446H21.5276V8.995H25.9747ZM40.7876 26.446L34.8159 19.012V26.446H30.3688V3.136H34.8159V16.3975L40.7241 8.995H46.5053L38.7547 17.752L46.5688 26.446H40.7876ZM46.8926 17.7205C46.8926 15.9145 47.2632 14.3395 48.0044 12.9955C48.7456 11.6305 49.7726 10.5805 51.0856 9.8455C52.3985 9.0895 53.9021 8.7115 55.5962 8.7115C57.7774 8.7115 59.5774 9.2575 60.9962 10.3495C62.4362 11.4205 63.3997 12.9325 63.8868 14.8855H59.0912C58.8371 14.1295 58.4029 13.5415 57.7888 13.1215C57.1959 12.6805 56.4547 12.46 55.5653 12.46C54.2947 12.46 53.2888 12.922 52.5476 13.846C51.8065 14.749 51.4359 16.0405 51.4359 17.7205C51.4359 19.3795 51.8065 20.671 52.5476 21.595C53.2888 22.498 54.2947 22.9495 55.5653 22.9495C57.3653 22.9495 58.5406 22.1515 59.0912 20.5555H63.8876C63.4006 22.4455 62.4371 23.947 60.9971 25.06C59.5571 26.173 57.7571 26.7295 55.5971 26.7295C53.9029 26.7295 52.3994 26.362 51.0865 25.627C49.7839 24.8817 48.7169 23.7908 48.0053 22.477C47.2641 21.112 46.8926 19.5265 46.8926 17.7205ZM70.71 11.704C71.2553 10.8058 72.02 10.0583 72.9335 9.5305C73.8653 9.0055 74.9241 8.743 76.11 8.743V13.3735H74.9347C73.5371 13.3735 72.4782 13.699 71.7582 14.35C71.0594 15.001 70.71 16.135 70.71 17.752V26.446H66.2629V8.995H70.71V11.704ZM89.7459 23.9575C89.2588 24.7555 88.4647 25.4275 87.3635 25.9735C86.2624 26.4985 85.0765 26.761 83.8059 26.761C82.7047 26.761 81.7094 26.5405 80.82 26.0995C79.9306 25.6585 79.2318 25.0495 78.7235 24.2725C78.2153 23.4955 77.9612 22.603 77.9612 21.595C77.9612 19.978 78.5647 18.655 79.7718 17.626C81 16.597 82.8318 16.0825 85.2671 16.0825H89.7459C89.7035 14.9695 89.3753 14.0875 88.7612 13.4365C88.1682 12.7645 87.3424 12.4285 86.2835 12.4285C85.3518 12.4285 84.5788 12.6805 83.9647 13.1845C83.3506 13.6675 82.9588 14.35 82.7894 15.232H78.3424C78.5541 13.972 79.0094 12.8485 79.7082 11.8615C80.422 10.8587 81.3849 10.0558 82.5035 9.5305C83.6682 8.9635 84.9706 8.68 86.4106 8.68C87.8929 8.68 89.2271 8.9845 90.4129 9.5935C91.5909 10.1753 92.5729 11.0835 93.24 12.208C93.9176 13.342 94.2565 14.6755 94.2565 16.2085V26.446H89.7459V23.9575ZM85.1082 23.2015C85.8494 23.2015 86.5694 23.044 87.2682 22.729C87.9882 22.414 88.5812 21.9415 89.0471 21.3115C89.5129 20.6815 89.7459 19.936 89.7459 19.075V18.949H85.5212C84.5047 18.949 83.7424 19.1485 83.2341 19.5475C82.7471 19.9465 82.5035 20.4715 82.5035 21.1225C82.5035 21.7525 82.7259 22.2565 83.1706 22.6345C83.6365 23.0125 84.2824 23.2015 85.1082 23.2015ZM103.635 12.6175V26.446H99.1244V12.6175H97.1232V8.995H99.1244V8.113C99.1244 5.971 99.7385 4.396 100.967 3.388C102.195 2.38 104.048 1.9075 106.526 1.9705V5.6875C105.446 5.6665 104.694 5.845 104.27 6.223C103.847 6.601 103.635 7.2835 103.635 8.2705V8.995H109.414V4.6795H113.893V8.995H117.832V12.6175H113.893V21.0595C113.893 21.6475 114.031 22.078 114.306 22.351C114.603 22.603 115.09 22.729 115.767 22.729H117.832V26.446H115.037C111.289 26.446 109.414 24.64 109.414 21.028V12.6175H103.635Z" fill="white"/>
</svg>
